{
    "asset" : {
        "generator" : "Khronos glTF Blender I/O v0.9.36",
        "version" : "2.0"
    },
    "scene" : 0,
    "scenes" : [
        {
            "name" : "Scene",
            "nodes" : [
                0,
                1,
                2
            ]
        }
    ],
    "nodes" : [
        {
            "name" : "Light",
            "rotation" : [
                0.16907575726509094,
                0.7558803558349609,
                -0.27217137813568115,
                0.570947527885437
            ],
            "translation" : [
                4.076245307922363,
                5.903861999511719,
                -1.0054539442062378
            ]
        },
        {
            "name" : "Camera",
            "rotation" : [
                0.483536034822464,
                0.33687159419059753,
                -0.20870360732078552,
                0.7804827094078064
            ],
            "translation" : [
                7.358891487121582,
                4.958309173583984,
                6.925790786743164
            ]
        },
        {
            "mesh" : 0,
            "name" : "Cube",
            "scale" : [
                1,
                0.30000001192092896,
                1
            ]
        }
    ],
    "materials" : [
        {
            "doubleSided" : true,
            "name" : "Material.001",
            "pbrMetallicRoughness" : {
                "baseColorFactor" : [
                    0.2668299973011017,
                    0.42350688576698303,
                    0.8000000715255737,
                    1
                ],
                "metallicFactor" : 0,
                "roughnessFactor" : 0.5
            }
        },
        {
            "doubleSided" : true,
            "name" : "Material.002",
            "pbrMetallicRoughness" : {
                "baseColorFactor" : [
                    0.029590360820293427,
                    0.12204087525606155,
                    0.8000000715255737,
                    1
                ],
                "metallicFactor" : 0,
                "roughnessFactor" : 0.5
            }
        },
        {
            "doubleSided" : true,
            "name" : "Material.003",
            "pbrMetallicRoughness" : {
                "baseColorFactor" : [
                    0.19258202612400055,
                    0.3041839003562927,
                    0.570470929145813,
                    1
                ],
                "metallicFactor" : 0,
                "roughnessFactor" : 0.5
            }
        }
    ],
    "meshes" : [
        {
            "name" : "Cube.001",
            "primitives" : [
                {
                    "attributes" : {
                        "POSITION" : 0,
                        "NORMAL" : 1,
                        "TEXCOORD_0" : 2
                    },
                    "indices" : 3,
                    "material" : 0
                },
                {
                    "attributes" : {
                        "POSITION" : 4,
                        "NORMAL" : 5,
                        "TEXCOORD_0" : 6
                    },
                    "indices" : 7,
                    "material" : 1
                },
                {
                    "attributes" : {
                        "POSITION" : 8,
                        "NORMAL" : 9,
                        "TEXCOORD_0" : 10
                    },
                    "indices" : 11,
                    "material" : 2
                }
            ]
        }
    ],
    "accessors" : [
        {
            "bufferView" : 0,
            "componentType" : 5126,
            "count" : 191,
            "max" : [
                1.0300592184066772,
                2.535517692565918,
                1
            ],
            "min" : [
                -1.0567058324813843,
                -1,
                -0.16550108790397644
            ],
            "type" : "VEC3"
        },
        {
            "bufferView" : 1,
            "componentType" : 5126,
            "count" : 191,
            "type" : "VEC3"
        },
        {
            "bufferView" : 2,
            "componentType" : 5126,
            "count" : 191,
            "type" : "VEC2"
        },
        {
            "bufferView" : 3,
            "componentType" : 5123,
            "count" : 345,
            "type" : "SCALAR"
        },
        {
            "bufferView" : 4,
            "componentType" : 5126,
            "count" : 21,
            "max" : [
                0.3144908547401428,
                1.418243646621704,
                1
            ],
            "min" : [
                -0.5618835687637329,
                0.11190246790647507,
                0.8220431804656982
            ],
            "type" : "VEC3"
        },
        {
            "bufferView" : 5,
            "componentType" : 5126,
            "count" : 21,
            "type" : "VEC3"
        },
        {
            "bufferView" : 6,
            "componentType" : 5126,
            "count" : 21,
            "type" : "VEC2"
        },
        {
            "bufferView" : 7,
            "componentType" : 5123,
            "count" : 45,
            "type" : "SCALAR"
        },
        {
            "bufferView" : 8,
            "componentType" : 5126,
            "count" : 146,
            "max" : [
                1.047425389289856,
                0.6055145859718323,
                1.0121304988861084
            ],
            "min" : [
                -1.0567058324813843,
                -1,
                -0.16550108790397644
            ],
            "type" : "VEC3"
        },
        {
            "bufferView" : 9,
            "componentType" : 5126,
            "count" : 146,
            "type" : "VEC3"
        },
        {
            "bufferView" : 10,
            "componentType" : 5126,
            "count" : 146,
            "type" : "VEC2"
        },
        {
            "bufferView" : 11,
            "componentType" : 5123,
            "count" : 240,
            "type" : "SCALAR"
        }
    ],
    "bufferViews" : [
        {
            "buffer" : 0,
            "byteLength" : 2292,
            "byteOffset" : 0
        },
        {
            "buffer" : 0,
            "byteLength" : 2292,
            "byteOffset" : 2292
        },
        {
            "buffer" : 0,
            "byteLength" : 1528,
            "byteOffset" : 4584
        },
        {
            "buffer" : 0,
            "byteLength" : 690,
            "byteOffset" : 6112
        },
        {
            "buffer" : 0,
            "byteLength" : 252,
            "byteOffset" : 6804
        },
        {
            "buffer" : 0,
            "byteLength" : 252,
            "byteOffset" : 7056
        },
        {
            "buffer" : 0,
            "byteLength" : 168,
            "byteOffset" : 7308
        },
        {
            "buffer" : 0,
            "byteLength" : 90,
            "byteOffset" : 7476
        },
        {
            "buffer" : 0,
            "byteLength" : 1752,
            "byteOffset" : 7568
        },
        {
            "buffer" : 0,
            "byteLength" : 1752,
            "byteOffset" : 9320
        },
        {
            "buffer" : 0,
            "byteLength" : 1168,
            "byteOffset" : 11072
        },
        {
            "buffer" : 0,
            "byteLength" : 480,
            "byteOffset" : 12240
        }
    ],
    "buffers" : [
        {
            "byteLength" : 12720,
            "uri" : "data:application/octet-stream;base64,"
        }
    ]
}
