{
    "asset" : {
        "generator" : "Khronos glTF Blender I/O v0.9.36",
        "version" : "2.0"
    },
    "scene" : 0,
    "scenes" : [
        {
            "name" : "Scene",
            "nodes" : [
                0,
                1,
                2,
                3,
                4
            ]
        }
    ],
    "nodes" : [
        {
            "mesh" : 0,
            "name" : "Cone",
            "scale" : [
                0.26517435908317566,
                0.26517435908317566,
                0.26517435908317566
            ],
            "translation" : [
                -0.5,
                0.09265909343957901,
                0
            ]
        },
        {
            "mesh" : 1,
            "name" : "Cone.001",
            "scale" : [
                0.26517435908317566,
                0.26517435908317566,
                0.26517435908317566
            ],
            "translation" : [
                0.5,
                0.09265909343957901,
                0
            ]
        },
        {
            "mesh" : 2,
            "name" : "Cube.001",
            "scale" : [
                0.9200000166893005,
                0.20000004768371582,
                0.7000000476837158
            ],
            "translation" : [
                0,
                0.3999999761581421,
                0
            ]
        },
        {
            "mesh" : 3,
            "name" : "Cone.002",
            "rotation" : [
                0,
                -0.7071067690849304,
                0,
                0.7071067690849304
            ],
            "scale" : [
                0.26517435908317566,
                0.26517435908317566,
                0.26517435908317566
            ],
            "translation" : [
                0,
                0.1569335162639618,
                -0.30000001192092896
            ]
        },
        {
            "mesh" : 4,
            "name" : "Cone.003",
            "rotation" : [
                0,
                -0.7071067690849304,
                0,
                0.7071067690849304
            ],
            "scale" : [
                0.26517435908317566,
                0.26517435908317566,
                0.26517435908317566
            ],
            "translation" : [
                0,
                0.1569335162639618,
                0.30000001192092896
            ]
        }
    ],
    "materials" : [
        {
            "doubleSided" : true,
            "name" : "Material.003",
            "pbrMetallicRoughness" : {
                "baseColorFactor" : [
                    0.06568038463592529,
                    0.38880279660224915,
                    0.8000000715255737,
                    1
                ],
                "metallicFactor" : 0,
                "roughnessFactor" : 0.5
            }
        },
        {
            "doubleSided" : true,
            "name" : "Material.004",
            "pbrMetallicRoughness" : {
                "baseColorFactor" : [
                    0.09252222627401352,
                    0.4560617506504059,
                    0.8000000715255737,
                    1
                ],
                "metallicFactor" : 0,
                "roughnessFactor" : 0.5
            }
        },
        {
            "doubleSided" : true,
            "name" : "Material.005",
            "pbrMetallicRoughness" : {
                "baseColorFactor" : [
                    0.02732374705374241,
                    0.035834379494190216,
                    0.06071971356868744,
                    1
                ],
                "metallicFactor" : 0,
                "roughnessFactor" : 0.5
            }
        },
        {
            "doubleSided" : true,
            "name" : "Material.006",
            "pbrMetallicRoughness" : {
                "baseColorFactor" : [
                    0.9372472167015076,
                    0.9335126280784607,
                    1,
                    1
                ],
                "metallicFactor" : 0,
                "roughnessFactor" : 0.5
            }
        },
        {
            "doubleSided" : true,
            "name" : "Material.007",
            "pbrMetallicRoughness" : {
                "baseColorFactor" : [
                    0.019433744251728058,
                    0.2584138512611389,
                    0.8000000715255737,
                    1
                ],
                "metallicFactor" : 0,
                "roughnessFactor" : 0.5
            }
        }
    ],
    "meshes" : [
        {
            "name" : "Cone",
            "primitives" : [
                {
                    "attributes" : {
                        "POSITION" : 0,
                        "NORMAL" : 1,
                        "TEXCOORD_0" : 2
                    },
                    "indices" : 3,
                    "material" : 0
                },
                {
                    "attributes" : {
                        "POSITION" : 4,
                        "NORMAL" : 5,
                        "TEXCOORD_0" : 6
                    },
                    "indices" : 7,
                    "material" : 1
                }
            ]
        },
        {
            "name" : "Cone.001",
            "primitives" : [
                {
                    "attributes" : {
                        "POSITION" : 8,
                        "NORMAL" : 9,
                        "TEXCOORD_0" : 10
                    },
                    "indices" : 3,
                    "material" : 0
                },
                {
                    "attributes" : {
                        "POSITION" : 11,
                        "NORMAL" : 12,
                        "TEXCOORD_0" : 13
                    },
                    "indices" : 7,
                    "material" : 1
                }
            ]
        },
        {
            "name" : "Cube.002",
            "primitives" : [
                {
                    "attributes" : {
                        "POSITION" : 14,
                        "NORMAL" : 15,
                        "TEXCOORD_0" : 16
                    },
                    "indices" : 17,
                    "material" : 2
                },
                {
                    "attributes" : {
                        "POSITION" : 18,
                        "NORMAL" : 19,
                        "TEXCOORD_0" : 20
                    },
                    "indices" : 21,
                    "material" : 3
                },
                {
                    "attributes" : {
                        "POSITION" : 22,
                        "NORMAL" : 23,
                        "TEXCOORD_0" : 24
                    },
                    "indices" : 25,
                    "material" : 4
                }
            ]
        },
        {
            "name" : "Cone.003",
            "primitives" : [
                {
                    "attributes" : {
                        "POSITION" : 26,
                        "NORMAL" : 27,
                        "TEXCOORD_0" : 28
                    },
                    "indices" : 3,
                    "material" : 0
                },
                {
                    "attributes" : {
                        "POSITION" : 29,
                        "NORMAL" : 30,
                        "TEXCOORD_0" : 31
                    },
                    "indices" : 7,
                    "material" : 1
                }
            ]
        },
        {
            "name" : "Cone.004",
            "primitives" : [
                {
                    "attributes" : {
                        "POSITION" : 32,
                        "NORMAL" : 33,
                        "TEXCOORD_0" : 34
                    },
                    "indices" : 3,
                    "material" : 0
                },
                {
                    "attributes" : {
                        "POSITION" : 35,
                        "NORMAL" : 36,
                        "TEXCOORD_0" : 37
                    },
                    "indices" : 7,
                    "material" : 1
                }
            ]
        }
    ],
    "accessors" : [
        {
            "bufferView" : 0,
            "componentType" : 5126,
            "count" : 1984,
            "max" : [
                0.665960967540741,
                -0.7803269028663635,
                0.6659606695175171
            ],
            "min" : [
                -0.6659603118896484,
                -2.112247943878174,
                -0.6659607887268066
            ],
            "type" : "VEC3"
        },
        {
            "bufferView" : 1,
            "componentType" : 5126,
            "count" : 1984,
            "type" : "VEC3"
        },
        {
            "bufferView" : 2,
            "componentType" : 5126,
            "count" : 1984,
            "type" : "VEC2"
        },
        {
            "bufferView" : 3,
            "componentType" : 5123,
            "count" : 2880,
            "type" : "SCALAR"
        },
        {
            "bufferView" : 4,
            "componentType" : 5126,
            "count" : 96,
            "max" : [
                0.5886523723602295,
                0.0018028020858764648,
                0.5886522531509399
            ],
            "min" : [
                -0.5886521935462952,
                -1.175501823425293,
                -0.5886523723602295
            ],
            "type" : "VEC3"
        },
        {
            "bufferView" : 5,
            "componentType" : 5126,
            "count" : 96,
            "type" : "VEC3"
        },
        {
            "bufferView" : 6,
            "componentType" : 5126,
            "count" : 96,
            "type" : "VEC2"
        },
        {
            "bufferView" : 7,
            "componentType" : 5123,
            "count" : 96,
            "type" : "SCALAR"
        },
        {
            "bufferView" : 8,
            "componentType" : 5126,
            "count" : 1984,
            "max" : [
                0.665960967540741,
                -0.7803269028663635,
                0.6659606695175171
            ],
            "min" : [
                -0.6659603118896484,
                -2.112247943878174,
                -0.6659607887268066
            ],
            "type" : "VEC3"
        },
        {
            "bufferView" : 9,
            "componentType" : 5126,
            "count" : 1984,
            "type" : "VEC3"
        },
        {
            "bufferView" : 10,
            "componentType" : 5126,
            "count" : 1984,
            "type" : "VEC2"
        },
        {
            "bufferView" : 11,
            "componentType" : 5126,
            "count" : 96,
            "max" : [
                0.5886523723602295,
                0.0018028020858764648,
                0.5886522531509399
            ],
            "min" : [
                -0.5886521935462952,
                -1.175501823425293,
                -0.5886523723602295
            ],
            "type" : "VEC3"
        },
        {
            "bufferView" : 12,
            "componentType" : 5126,
            "count" : 96,
            "type" : "VEC3"
        },
        {
            "bufferView" : 13,
            "componentType" : 5126,
            "count" : 96,
            "type" : "VEC2"
        },
        {
            "bufferView" : 14,
            "componentType" : 5126,
            "count" : 649,
            "max" : [
                0.9134835600852966,
                2.503019332885742,
                0.9645165205001831
            ],
            "min" : [
                -0.8750907182693481,
                -0.8086485862731934,
                -0.8278007507324219
            ],
            "type" : "VEC3"
        },
        {
            "bufferView" : 15,
            "componentType" : 5126,
            "count" : 649,
            "type" : "VEC3"
        },
        {
            "bufferView" : 16,
            "componentType" : 5126,
            "count" : 649,
            "type" : "VEC2"
        },
        {
            "bufferView" : 17,
            "componentType" : 5123,
            "count" : 1059,
            "type" : "SCALAR"
        },
        {
            "bufferView" : 18,
            "componentType" : 5126,
            "count" : 25,
            "max" : [
                0.3226468861103058,
                1.4143354892730713,
                0.8345745801925659
            ],
            "min" : [
                -0.3272712230682373,
                0.9928227663040161,
                0.7738674879074097
            ],
            "type" : "VEC3"
        },
        {
            "bufferView" : 19,
            "componentType" : 5126,
            "count" : 25,
            "type" : "VEC3"
        },
        {
            "bufferView" : 20,
            "componentType" : 5126,
            "count" : 25,
            "type" : "VEC2"
        },
        {
            "bufferView" : 21,
            "componentType" : 5123,
            "count" : 51,
            "type" : "SCALAR"
        },
        {
            "bufferView" : 22,
            "componentType" : 5126,
            "count" : 58,
            "max" : [
                0.2847139835357666,
                1.3496294021606445,
                0.9515542387962341
            ],
            "min" : [
                -0.2893456816673279,
                -0.2989587187767029,
                0.8043807744979858
            ],
            "type" : "VEC3"
        },
        {
            "bufferView" : 23,
            "componentType" : 5126,
            "count" : 58,
            "type" : "VEC3"
        },
        {
            "bufferView" : 24,
            "componentType" : 5126,
            "count" : 58,
            "type" : "VEC2"
        },
        {
            "bufferView" : 25,
            "componentType" : 5123,
            "count" : 132,
            "type" : "SCALAR"
        },
        {
            "bufferView" : 26,
            "componentType" : 5126,
            "count" : 1984,
            "max" : [
                0.665960967540741,
                -0.7803269028663635,
                0.6659606695175171
            ],
            "min" : [
                -0.6659603118896484,
                -2.112247943878174,
                -0.6659607887268066
            ],
            "type" : "VEC3"
        },
        {
            "bufferView" : 27,
            "componentType" : 5126,
            "count" : 1984,
            "type" : "VEC3"
        },
        {
            "bufferView" : 28,
            "componentType" : 5126,
            "count" : 1984,
            "type" : "VEC2"
        },
        {
            "bufferView" : 29,
            "componentType" : 5126,
            "count" : 96,
            "max" : [
                0.5886523723602295,
                0.0018028020858764648,
                0.5886522531509399
            ],
            "min" : [
                -0.5886521935462952,
                -1.175501823425293,
                -0.5886523723602295
            ],
            "type" : "VEC3"
        },
        {
            "bufferView" : 30,
            "componentType" : 5126,
            "count" : 96,
            "type" : "VEC3"
        },
        {
            "bufferView" : 31,
            "componentType" : 5126,
            "count" : 96,
            "type" : "VEC2"
        },
        {
            "bufferView" : 32,
            "componentType" : 5126,
            "count" : 1984,
            "max" : [
                0.665960967540741,
                -0.7803269028663635,
                0.6659606695175171
            ],
            "min" : [
                -0.6659603118896484,
                -2.112247943878174,
                -0.6659607887268066
            ],
            "type" : "VEC3"
        },
        {
            "bufferView" : 33,
            "componentType" : 5126,
            "count" : 1984,
            "type" : "VEC3"
        },
        {
            "bufferView" : 34,
            "componentType" : 5126,
            "count" : 1984,
            "type" : "VEC2"
        },
        {
            "bufferView" : 35,
            "componentType" : 5126,
            "count" : 96,
            "max" : [
                0.5886523723602295,
                0.0018028020858764648,
                0.5886522531509399
            ],
            "min" : [
                -0.5886521935462952,
                -1.175501823425293,
                -0.5886523723602295
            ],
            "type" : "VEC3"
        },
        {
            "bufferView" : 36,
            "componentType" : 5126,
            "count" : 96,
            "type" : "VEC3"
        },
        {
            "bufferView" : 37,
            "componentType" : 5126,
            "count" : 96,
            "type" : "VEC2"
        }
    ],
    "bufferViews" : [
        {
            "buffer" : 0,
            "byteLength" : 23808,
            "byteOffset" : 0
        },
        {
            "buffer" : 0,
            "byteLength" : 23808,
            "byteOffset" : 23808
        },
        {
            "buffer" : 0,
            "byteLength" : 15872,
            "byteOffset" : 47616
        },
        {
            "buffer" : 0,
            "byteLength" : 5760,
            "byteOffset" : 63488
        },
        {
            "buffer" : 0,
            "byteLength" : 1152,
            "byteOffset" : 69248
        },
        {
            "buffer" : 0,
            "byteLength" : 1152,
            "byteOffset" : 70400
        },
        {
            "buffer" : 0,
            "byteLength" : 768,
            "byteOffset" : 71552
        },
        {
            "buffer" : 0,
            "byteLength" : 192,
            "byteOffset" : 72320
        },
        {
            "buffer" : 0,
            "byteLength" : 23808,
            "byteOffset" : 72512
        },
        {
            "buffer" : 0,
            "byteLength" : 23808,
            "byteOffset" : 96320
        },
        {
            "buffer" : 0,
            "byteLength" : 15872,
            "byteOffset" : 120128
        },
        {
            "buffer" : 0,
            "byteLength" : 1152,
            "byteOffset" : 136000
        },
        {
            "buffer" : 0,
            "byteLength" : 1152,
            "byteOffset" : 137152
        },
        {
            "buffer" : 0,
            "byteLength" : 768,
            "byteOffset" : 138304
        },
        {
            "buffer" : 0,
            "byteLength" : 7788,
            "byteOffset" : 139072
        },
        {
            "buffer" : 0,
            "byteLength" : 7788,
            "byteOffset" : 146860
        },
        {
            "buffer" : 0,
            "byteLength" : 5192,
            "byteOffset" : 154648
        },
        {
            "buffer" : 0,
            "byteLength" : 2118,
            "byteOffset" : 159840
        },
        {
            "buffer" : 0,
            "byteLength" : 300,
            "byteOffset" : 161960
        },
        {
            "buffer" : 0,
            "byteLength" : 300,
            "byteOffset" : 162260
        },
        {
            "buffer" : 0,
            "byteLength" : 200,
            "byteOffset" : 162560
        },
        {
            "buffer" : 0,
            "byteLength" : 102,
            "byteOffset" : 162760
        },
        {
            "buffer" : 0,
            "byteLength" : 696,
            "byteOffset" : 162864
        },
        {
            "buffer" : 0,
            "byteLength" : 696,
            "byteOffset" : 163560
        },
        {
            "buffer" : 0,
            "byteLength" : 464,
            "byteOffset" : 164256
        },
        {
            "buffer" : 0,
            "byteLength" : 264,
            "byteOffset" : 164720
        },
        {
            "buffer" : 0,
            "byteLength" : 23808,
            "byteOffset" : 164984
        },
        {
            "buffer" : 0,
            "byteLength" : 23808,
            "byteOffset" : 188792
        },
        {
            "buffer" : 0,
            "byteLength" : 15872,
            "byteOffset" : 212600
        },
        {
            "buffer" : 0,
            "byteLength" : 1152,
            "byteOffset" : 228472
        },
        {
            "buffer" : 0,
            "byteLength" : 1152,
            "byteOffset" : 229624
        },
        {
            "buffer" : 0,
            "byteLength" : 768,
            "byteOffset" : 230776
        },
        {
            "buffer" : 0,
            "byteLength" : 23808,
            "byteOffset" : 231544
        },
        {
            "buffer" : 0,
            "byteLength" : 23808,
            "byteOffset" : 255352
        },
        {
            "buffer" : 0,
            "byteLength" : 15872,
            "byteOffset" : 279160
        },
        {
            "buffer" : 0,
            "byteLength" : 1152,
            "byteOffset" : 295032
        },
        {
            "buffer" : 0,
            "byteLength" : 1152,
            "byteOffset" : 296184
        },
        {
            "buffer" : 0,
            "byteLength" : 768,
            "byteOffset" : 297336
        }
    ],
    "buffers" : [
        {
            "byteLength" : 298104,
            "uri" : "data:application/octet-stream;base64,"
        }
    ]
}
