{
    "asset" : {
        "generator" : "Khronos glTF Blender I/O v0.9.36",
        "version" : "2.0"
    },
    "scene" : 0,
    "scenes" : [
        {
            "name" : "Scene",
            "nodes" : [
                0,
                1
            ]
        }
    ],
    "nodes" : [
        {
            "mesh" : 0,
            "name" : "Cube",
            "scale" : [
                0.9200000166893005,
                0.20000004768371582,
                0.7000000476837158
            ],
            "translation" : [
                0,
                0.3999999761581421,
                0
            ]
        },
        {
            "mesh" : 1,
            "name" : "Cone",
            "scale" : [
                0.26517435908317566,
                0.26517435908317566,
                0.26517435908317566
            ],
            "translation" : [
                0,
                0.06098638474941254,
                0
            ]
        }
    ],
    "materials" : [
        {
            "doubleSided" : true,
            "name" : "Material.005",
            "pbrMetallicRoughness" : {
                "baseColorFactor" : [
                    0.06446602195501328,
                    0.0865415409207344,
                    0.1523214429616928,
                    1
                ],
                "metallicFactor" : 0,
                "roughnessFactor" : 0.5
            }
        },
        {
            "doubleSided" : true,
            "name" : "Material.006",
            "pbrMetallicRoughness" : {
                "baseColorFactor" : [
                    0.9372472167015076,
                    0.9335126280784607,
                    1,
                    1
                ],
                "metallicFactor" : 0,
                "roughnessFactor" : 0.5
            }
        },
        {
            "doubleSided" : true,
            "name" : "Material.007",
            "pbrMetallicRoughness" : {
                "baseColorFactor" : [
                    0.019433744251728058,
                    0.2584138512611389,
                    0.8000000715255737,
                    1
                ],
                "metallicFactor" : 0,
                "roughnessFactor" : 0.5
            }
        },
        {
            "doubleSided" : true,
            "name" : "Material.003",
            "pbrMetallicRoughness" : {
                "baseColorFactor" : [
                    0.06568038463592529,
                    0.38880279660224915,
                    0.8000000715255737,
                    1
                ],
                "metallicFactor" : 0,
                "roughnessFactor" : 0.5
            }
        },
        {
            "doubleSided" : true,
            "name" : "Material.004",
            "pbrMetallicRoughness" : {
                "baseColorFactor" : [
                    0.09252222627401352,
                    0.4560617506504059,
                    0.8000000715255737,
                    1
                ],
                "metallicFactor" : 0,
                "roughnessFactor" : 0.5
            }
        }
    ],
    "meshes" : [
        {
            "name" : "Cube.002",
            "primitives" : [
                {
                    "attributes" : {
                        "POSITION" : 0,
                        "NORMAL" : 1,
                        "TEXCOORD_0" : 2
                    },
                    "indices" : 3,
                    "material" : 0
                },
                {
                    "attributes" : {
                        "POSITION" : 4,
                        "NORMAL" : 5,
                        "TEXCOORD_0" : 6
                    },
                    "indices" : 7,
                    "material" : 1
                },
                {
                    "attributes" : {
                        "POSITION" : 8,
                        "NORMAL" : 9,
                        "TEXCOORD_0" : 10
                    },
                    "indices" : 11,
                    "material" : 2
                }
            ]
        },
        {
            "name" : "Cone",
            "primitives" : [
                {
                    "attributes" : {
                        "POSITION" : 12,
                        "NORMAL" : 13,
                        "TEXCOORD_0" : 14
                    },
                    "indices" : 15,
                    "material" : 3
                },
                {
                    "attributes" : {
                        "POSITION" : 16,
                        "NORMAL" : 17,
                        "TEXCOORD_0" : 18
                    },
                    "indices" : 19,
                    "material" : 4
                }
            ]
        }
    ],
    "accessors" : [
        {
            "bufferView" : 0,
            "componentType" : 5126,
            "count" : 649,
            "max" : [
                0.9134835600852966,
                2.3576126098632812,
                0.9645165205001831
            ],
            "min" : [
                -0.8750907182693481,
                -0.8086485862731934,
                -0.8278007507324219
            ],
            "type" : "VEC3"
        },
        {
            "bufferView" : 1,
            "componentType" : 5126,
            "count" : 649,
            "type" : "VEC3"
        },
        {
            "bufferView" : 2,
            "componentType" : 5126,
            "count" : 649,
            "type" : "VEC2"
        },
        {
            "bufferView" : 3,
            "componentType" : 5123,
            "count" : 1059,
            "type" : "SCALAR"
        },
        {
            "bufferView" : 4,
            "componentType" : 5126,
            "count" : 25,
            "max" : [
                0.3226468861103058,
                1.4143354892730713,
                0.8345745801925659
            ],
            "min" : [
                -0.3272712230682373,
                0.9928227663040161,
                0.7738674879074097
            ],
            "type" : "VEC3"
        },
        {
            "bufferView" : 5,
            "componentType" : 5126,
            "count" : 25,
            "type" : "VEC3"
        },
        {
            "bufferView" : 6,
            "componentType" : 5126,
            "count" : 25,
            "type" : "VEC2"
        },
        {
            "bufferView" : 7,
            "componentType" : 5123,
            "count" : 51,
            "type" : "SCALAR"
        },
        {
            "bufferView" : 8,
            "componentType" : 5126,
            "count" : 58,
            "max" : [
                0.2847139835357666,
                1.3496294021606445,
                0.9471590518951416
            ],
            "min" : [
                -0.2893456816673279,
                -0.16663479804992676,
                0.8043807744979858
            ],
            "type" : "VEC3"
        },
        {
            "bufferView" : 9,
            "componentType" : 5126,
            "count" : 58,
            "type" : "VEC3"
        },
        {
            "bufferView" : 10,
            "componentType" : 5126,
            "count" : 58,
            "type" : "VEC2"
        },
        {
            "bufferView" : 11,
            "componentType" : 5123,
            "count" : 132,
            "type" : "SCALAR"
        },
        {
            "bufferView" : 12,
            "componentType" : 5126,
            "count" : 1984,
            "max" : [
                0.665960967540741,
                -0.7803269028663635,
                0.6659606695175171
            ],
            "min" : [
                -0.6659603118896484,
                -2.112247943878174,
                -0.6659607887268066
            ],
            "type" : "VEC3"
        },
        {
            "bufferView" : 13,
            "componentType" : 5126,
            "count" : 1984,
            "type" : "VEC3"
        },
        {
            "bufferView" : 14,
            "componentType" : 5126,
            "count" : 1984,
            "type" : "VEC2"
        },
        {
            "bufferView" : 15,
            "componentType" : 5123,
            "count" : 2880,
            "type" : "SCALAR"
        },
        {
            "bufferView" : 16,
            "componentType" : 5126,
            "count" : 96,
            "max" : [
                0.5886523723602295,
                0.0018028020858764648,
                0.5886522531509399
            ],
            "min" : [
                -0.5886521935462952,
                -1.175501823425293,
                -0.5886523723602295
            ],
            "type" : "VEC3"
        },
        {
            "bufferView" : 17,
            "componentType" : 5126,
            "count" : 96,
            "type" : "VEC3"
        },
        {
            "bufferView" : 18,
            "componentType" : 5126,
            "count" : 96,
            "type" : "VEC2"
        },
        {
            "bufferView" : 19,
            "componentType" : 5123,
            "count" : 96,
            "type" : "SCALAR"
        }
    ],
    "bufferViews" : [
        {
            "buffer" : 0,
            "byteLength" : 7788,
            "byteOffset" : 0
        },
        {
            "buffer" : 0,
            "byteLength" : 7788,
            "byteOffset" : 7788
        },
        {
            "buffer" : 0,
            "byteLength" : 5192,
            "byteOffset" : 15576
        },
        {
            "buffer" : 0,
            "byteLength" : 2118,
            "byteOffset" : 20768
        },
        {
            "buffer" : 0,
            "byteLength" : 300,
            "byteOffset" : 22888
        },
        {
            "buffer" : 0,
            "byteLength" : 300,
            "byteOffset" : 23188
        },
        {
            "buffer" : 0,
            "byteLength" : 200,
            "byteOffset" : 23488
        },
        {
            "buffer" : 0,
            "byteLength" : 102,
            "byteOffset" : 23688
        },
        {
            "buffer" : 0,
            "byteLength" : 696,
            "byteOffset" : 23792
        },
        {
            "buffer" : 0,
            "byteLength" : 696,
            "byteOffset" : 24488
        },
        {
            "buffer" : 0,
            "byteLength" : 464,
            "byteOffset" : 25184
        },
        {
            "buffer" : 0,
            "byteLength" : 264,
            "byteOffset" : 25648
        },
        {
            "buffer" : 0,
            "byteLength" : 23808,
            "byteOffset" : 25912
        },
        {
            "buffer" : 0,
            "byteLength" : 23808,
            "byteOffset" : 49720
        },
        {
            "buffer" : 0,
            "byteLength" : 15872,
            "byteOffset" : 73528
        },
        {
            "buffer" : 0,
            "byteLength" : 5760,
            "byteOffset" : 89400
        },
        {
            "buffer" : 0,
            "byteLength" : 1152,
            "byteOffset" : 95160
        },
        {
            "buffer" : 0,
            "byteLength" : 1152,
            "byteOffset" : 96312
        },
        {
            "buffer" : 0,
            "byteLength" : 768,
            "byteOffset" : 97464
        },
        {
            "buffer" : 0,
            "byteLength" : 192,
            "byteOffset" : 98232
        }
    ],
    "buffers" : [
        {
            "byteLength" : 98424,
            "uri" : "data:application/octet-stream;base64,"
        }
    ]
}
